<?xml version="1.0" encoding="utf-8"?>
<!-- Generator: Adobe Illustrator 28.2.0, SVG Export Plug-In . SVG Version: 6.00 Build 0)  -->
<svg version="1.1" id="svg1" xmlns="http://www.w3.org/2000/svg" xmlns:xlink="http://www.w3.org/1999/xlink" x="0px" y="0px"
	 viewBox="0 0 525.1 161" style="enable-background:new 0 0 525.1 161;" xml:space="preserve">
<style type="text/css">
	.st0{fill:#CCCCCC;}
	.st1{fill:#B3B3B3;}
	.st2{fill:#999999;}
	.st3{fill:#666666;}
	.st4{fill:#808080;}
	.st5{fill:#4D4D4D;}
	.st6{fill:#F2F2F2;}
	.st7{fill:#333333;}
	.st8{font-family:'Arial-BoldMT';}
	.st9{font-size:5.4902px;}
	.st10{font-size:5.9519px;}
	.st11{font-size:5.9376px;}
	.st12{font-size:5.9326px;}
	.st13{font-size:5.9511px;}
	.st14{font-size:5.952px;}
	.st15{font-size:5.9499px;}
	.st16{font-size:5.9458px;}
	.st17{font-size:5.9508px;}
	.st18{font-size:5.9461px;}
	.st19{font-size:5.9486px;}
	.st20{font-size:50.6045px;}
</style>
<g id="layer1">
	<path id="path11-5-6" class="st0" d="M66.4,89.9c0,0,17.3,6.6,20.5,5.1c3.2-1.4-0.6-7.6-7.6-8.8c-6.9-1.1-9.5-3-9.5-3l-3.9-2.1
		c0,0,9.8,4.7,14.6,4.3c4.9-0.4,11.7,10,5.8,10.8C80.5,97,66.4,89.9,66.4,89.9L66.4,89.9L66.4,89.9z"/>
	<path id="path11-5-6-2" class="st0" d="M57.8,108.2c0,0,12.6,4.3,15,3.4c2.4-1-0.5-5.1-5.5-5.8s-6.9-2-6.9-2l-2.9-1.4
		c0,0,7.2,3.2,10.7,2.9c3.6-0.3,8.5,6.7,4.3,7.1C68.1,113,57.8,108.2,57.8,108.2L57.8,108.2L57.8,108.2z"/>
	<path id="path1" class="st0" d="M72.8,145.7c0,0-38.6-6.1-37.6-78.7C36.4-5.6,109,56.3,109,56.3s24.8,18.2,11,16.7
		c-13.8-1.4-27.3,0-31.9,10c-4.6,10-21.6,14.6-17.4,31.3c4.3,16.7-7.2,23.9,4,22.2c11.2-1.6-0.9,9.1,5.9,14.2
		C88.1,156.5,72.8,145.7,72.8,145.7L72.8,145.7L72.8,145.7z"/>
	<path id="path3-4-77" class="st1" d="M31.2,68.7c0,0-14-0.6-11.4,5.2c2.6,5.8,6.3,15.3,8.2,10.9c1.9-4.4,16.9,19,14.4,5.2
		c-2.4-13.8,36.3,17,18.5-3S31.2,68.7,31.2,68.7L31.2,68.7z"/>
	<path id="path11-5" class="st1" d="M54.5,91.1c0,0-30.3-8.5-36-6.6c-5.7,1.9,1.1,9.9,13.3,11.4c12.1,1.4,16.6,3.8,16.6,3.8l6.9,2.8
		c0,0-17.2-6.2-25.7-5.6C21.1,97.4,9.1,84,19.4,83S54.5,91.1,54.5,91.1L54.5,91.1L54.5,91.1z"/>
	<path id="path3-5" class="st1" d="M33.3,82.7c0,0-11.9-0.6-9.7,5.2c2.3,5.8,5.4,15.3,7,10.9s14.4,19,12.3,5.2
		c-2.1-13.8,31,17,15.8-3S33.3,82.7,33.3,82.7L33.3,82.7L33.3,82.7z"/>
	<path id="path3-5-8" class="st1" d="M28,38.1c0,0-21.1-0.7-17.1,6s9.5,17.7,12.3,12.5s25.5,21.9,21.8,6s54.9,19.6,27.9-3.5
		C46,36.1,28,38.1,28,38.1z"/>
	<path id="path11" class="st2" d="M86.5,58.9c0,0,31.6,13.4,37.5,10.4c5.9-3-1.2-15.6-13.8-18s-17.3-6-17.3-6L85.6,41
		c0,0,17.9,9.7,26.8,8.9c8.9-0.8,21.4,20.4,10.6,22C112.3,73.4,86.5,58.9,86.5,58.9L86.5,58.9L86.5,58.9z"/>
	<path id="path3-5-2" class="st1" d="M34.3,21.8c0,0-26.9-0.7-21.8,6.2s12.1,18.1,15.7,12.9C31.8,35.6,60.6,63.3,56,47
		s69.8,20.1,35.5-3.6C57.2,19.7,34.3,21.8,34.3,21.8z"/>
	<path id="path3-4-71" class="st1" d="M30.1,54.4c0,0-17.1-0.6-13.8,5.8s7.7,17,9.9,12.1c2.3-4.9,20.5,21.1,17.6,5.8
		S88.2,97,66.4,74.7C44.7,52.5,30.1,54.4,30.1,54.4L30.1,54.4z"/>
	<path id="path3-4-1" class="st1" d="M38.7,95.1c0,0-9.2-0.5-7.5,4.9c1.7,5.4,4.2,14.2,5.4,10.1s11.2,17.6,9.6,4.8
		c-1.6-12.8,24.1,15.7,12.3-2.8S38.7,95.1,38.7,95.1L38.7,95.1z"/>
	<path id="path3-4-2" class="st1" d="M37.2,43.1c0,0-20.3-0.6-16.5,5.4s9.1,15.9,11.9,11.4c2.8-4.6,24.5,19.7,21,5.4
		c-3.5-14.4,52.8,17.7,26.9-3.2C54.5,41.3,37.2,43.1,37.2,43.1L37.2,43.1z"/>
	<path id="path3" class="st3" d="M24.9,40.1c0,0,52.8,29.2,65.4,30.5c12.6,1.3-1.7,1-1.7,1s-5.9-1.4-12.4-4.3S40.7,51.5,30.5,45.1
		S24.9,40.1,24.9,40.1L24.9,40.1z"/>
	<path id="path3-0" class="st2" d="M17.1,53.8c0,0,44.8,26.2,55.5,27.3c10.7,1.2-1.5,0.9-1.5,0.9s-5-1.3-10.5-3.9
		C55.1,75.5,30.5,64,21.8,58.2C13.1,52.6,17.1,53.8,17.1,53.8L17.1,53.8z"/>
	<path id="path3-9" class="st4" d="M28.5,78.3c0,0,32.1,13.7,39.7,14.4c7.7,0.6-1,0.5-1,0.5s-3.6-0.7-7.5-2
		c-3.9-1.3-21.6-7.4-27.8-10.4C25.6,77.6,28.5,78.3,28.5,78.3L28.5,78.3z"/>
	<path id="path3-2" class="st2" d="M41.5,95.1c0,0,19.9,18.3,25.2,20c5.3,1.7-0.8,0.3-0.8,0.3s-2.4-1.2-4.9-3.1
		c-2.5-1.9-13.8-10.5-17.6-14.4C39.6,94,41.5,95.1,41.5,95.1L41.5,95.1L41.5,95.1z"/>
	<path id="path4" class="st2" d="M23.4,35.4c-6.8-19.8,33.1-6.1,33.1-6.1s3.5,0.9,2,1.4c-1.5,0.5-16.7-4.6-22.4-4.2
		c-5.7,0.3-9.2,0.5-10.1,0.9c-0.9,0.4-2.2,1.9-2.2,2.3c-0.1,0.4-0.7,2.4-0.5,3.8C23.5,34.7,23.4,35.4,23.4,35.4L23.4,35.4z"/>
	<path id="path6" class="st2" d="M22.9,32.4c0,0,1.2-5,5.1-6.1c3.9-1-2,0.1-2,0.1l-2.9,3.2L22.9,32.4L22.9,32.4z"/>
	<path id="path7" class="st2" d="M24.3,28.6c0,0,1.9-1.3,6.6-2.3S28,25.6,28,25.6L24.3,28.6L24.3,28.6z"/>
	<path id="path3-0-9" class="st2" d="M38.1,65.9c0,0,47.1,17.5,58.4,18.4c11.3,0.8-1.5,0.6-1.5,0.6s-5.3-0.9-11.1-2.6
		S52.1,72.8,43,69C33.8,65,38.1,65.9,38.1,65.9L38.1,65.9z"/>
	<path id="path3-0-7" class="st4" d="M40,104.1c0,0,34.6,18.4,42.9,19.1c8.3,0.8-1.1,0.6-1.1,0.6s-3.9-0.9-8.1-2.7
		c-4.3-1.8-23.3-9.9-30-13.9C36.9,103.1,40,104.1,40,104.1L40,104.1L40,104.1z"/>
	<path id="path10" class="st4" d="M51.3,41.2c0,0,1.6-6.5,11.2-3.6s25.5,9,25.5,9L59.8,34l-19.8-1.3L51.3,41.2z"/>
	<path id="path3-03" class="st2" d="M36.1,30.2c0,0,59.2,34.1,74.1,37.3s-2.8,1.3-2.8,1.3S75.2,57.9,67.9,54.3
		C60.7,50.7,43.9,44,32.7,36.8S36.1,30.2,36.1,30.2z"/>
	<path id="path9" class="st2" d="M33.5,30.3c0,0,23-0.9,40.3,8.1s28,14,36.3,21.2s-4.8-3-4.8-3S76.8,40.9,69.2,38.1
		c-7.7-2.8-23.6-4.3-29.9-3.2c-6.3,1.1-6.8-1.3-6.8-1.3L33.5,30.3L33.5,30.3z"/>
	<path id="path11-2" class="st3" d="M89.3,80.7c0,0,6.3,2.4,8.8,0.9c2.5-1.4,3.2-7.2-2.2-8.3c-5.4-1.1-11.4-3.1-11.4-3.1l-3.1-2.1
		c0,0,11.4,3.4,15.2,3c3.8-0.4,5.4,11,0.8,11.7C92.8,83.6,89.3,80.7,89.3,80.7L89.3,80.7L89.3,80.7z"/>
	<path id="path11-2-1" class="st3" d="M24.7,21.9c0,0-11.4-2.1-15.7-0.9c-4.4,1.2-7.5,9.5,1.1,12.3c8.6,2.8,11.6,4.6,11.6,4.6
		l21.6,13.4c0,0-28.2-16.6-34.5-17.1S1.7,19.1,9.3,19.4S24.7,21.9,24.7,21.9L24.7,21.9z"/>
	<path id="path11-2-1-5" class="st2" d="M47.2,53.7c0,0-19.7-3.9-27.6-2.8c-7.8,1-13.8,11.2,1.1,15.7c14.9,4.5,19.9,7,19.9,7
		l37,19.2c0,0-48.3-23.9-59.3-25.2s-11.4-19.8,2-18.6C33.6,50,47.2,53.7,47.2,53.7L47.2,53.7L47.2,53.7z"/>
	<path id="path12" class="st1" d="M15.8,52.3L14,49.4l1.2-5l25.3,6.9l5.9,2.1l1.9,0.9l-13.7-1.2L15.8,52.3L15.8,52.3z"/>
	<path id="path11-2-1-5-5" class="st5" d="M70.1,106c0,0,13.8,1.3,19.8,0.9c6-0.4,10.5-4.5-0.9-6.3s-15.2-2.8-15.2-2.8L29.3,87
		c0,0,53.4,12.9,61.7,13.3c8.4,0.5,8.8,7.9-1.5,7.4S70.1,106,70.1,106L70.1,106z"/>
	<path id="path13" class="st6" d="M95.6,47.1c-4.8-2-9.2-3.5-13.9-5.1c-4.8-1.6-9.5-3-14.2-4.3c-3.2-0.9-5.6-1.6-8.6-2.3
		c-1.2-0.3-2.5-0.6-3.7-0.9c-3.5-0.8-6.8-1.3-8.8-1c-0.9,0.1-1.1,0.3-1.7,0.6c-0.1,0.2-0.3,0.3-0.4,0.5c-0.2,0.9,1.5,2.5,3.7,4.1
		c0.6,0.5,1.4,0.9,2,1.4c4.2,2.7,8.9,5.4,13.5,8.2c2,1.2,3.8,2.4,5.6,3.5l4.2,1.9l0,0c-1.8-1.2-3.7-2.4-5.7-3.6
		c-4.6-2.7-9.4-5.4-13.6-8.2c-0.6-0.5-1.4-0.9-2-1.3c-2.2-1.6-3.9-3.1-3.7-4c0.1-0.2,0.2-0.3,0.4-0.5c0.6-0.3,0.8-0.5,1.7-0.6
		c1.9-0.2,5,0.2,8.4,0.9c1.2,0.3,2.4,0.5,3.6,0.8c2.8,0.7,5.5,1.4,8.5,2.3c4.6,1.3,9.4,2.8,14.3,4.4c3.1,1,4.8,1.6,7.8,2.7
		c2.2,0.8,4.4,1.7,6.6,2.7L95.6,47.1L95.6,47.1z"/>
	<path id="path13-2" class="st1" d="M92.7,45.8c-4.8-2-9.2-3.5-13.9-5.1c-4.8-1.6-9.5-3-14.2-4.3c-3.2-0.9-5.6-1.6-8.6-2.3
		c-1.2-0.3-2.5-0.6-3.7-0.9c-3.5-0.8-6.8-1.3-8.8-1c-0.9,0.1-1.1,0.3-1.7,0.6c-0.1,0.2-0.3,0.3-0.4,0.5c-0.2,0.9,1.5,2.5,3.7,4.1
		c0.6,0.5,1.4,0.9,2,1.4c4.2,2.7,8.9,5.4,13.5,8.2c2,1.2,3.8,2.4,5.6,3.5l4.2,1.9l0,0c-1.8-1.2-3.7-2.4-5.7-3.6
		c-4.6-2.7-9.4-5.4-13.6-8.2c-0.6-0.5-1.4-0.9-2-1.3c-2.2-1.6-3.9-3.1-3.7-4c0.1-0.2,0.2-0.3,0.4-0.5c0.6-0.3,0.8-0.5,1.7-0.6
		c1.9-0.2,5,0.2,8.4,0.9c1.2,0.3,2.4,0.5,3.6,0.8c2.8,0.7,5.5,1.4,8.5,2.3c4.6,1.3,9.4,2.8,14.3,4.4c3.1,1,4.8,1.6,7.8,2.7
		c2.2,0.8,4.4,1.7,6.6,2.7L92.7,45.8L92.7,45.8z"/>
	<path id="path13-0" class="st3" d="M89.9,44.8c-4.8-2-9.2-3.5-13.9-5.1c-4.8-1.6-9.5-3-14.2-4.3c-3.2-0.9-5.6-1.6-8.6-2.3
		c-1.2-0.3-2.5-0.6-3.7-0.9c-3.5-0.8-6.8-1.3-8.8-1.1c-0.9,0.1-1.1,0.3-1.7,0.6c-0.1,0.2-0.3,0.3-0.4,0.5c-0.2,0.9,1.5,2.5,3.7,4.1
		c0.6,0.5,1.4,0.9,2,1.4c4.2,2.7,8.9,5.4,13.5,8.2c2,1.2,3.8,2.4,5.6,3.5l4.2,1.9l0,0c-1.8-1.2-3.7-2.4-5.7-3.6
		c-4.6-2.7-9.4-5.4-13.6-8.2c-0.6-0.5-1.4-0.9-2-1.3c-2.2-1.6-3.9-3.1-3.7-4c0.1-0.2,0.2-0.3,0.4-0.5c0.6-0.3,0.8-0.5,1.7-0.6
		c1.9-0.2,5,0.2,8.4,0.9c1.2,0.3,2.4,0.5,3.6,0.8c2.8,0.7,5.5,1.4,8.5,2.3c4.6,1.3,9.4,2.8,14.3,4.4c3.1,1,4.8,1.6,7.8,2.7
		c2.2,0.8,4.4,1.7,6.6,2.7L89.9,44.8L89.9,44.8z"/>
	<path id="path14" class="st1" d="M94.3,46.7c0.2,0.2,0.3,0.3,0.5,0.5c0.1,0.1,0.2,0.2,0.3,0.3c0.1,0.1,0.1,0.1,0.1,0.2
		c0.2,0.3-0.1,0.2,0.8,0.2c0.1,0-0.1-0.1-0.1-0.1c-0.5-0.3-0.9-0.7-1.4-1.1c-0.2-0.2-0.4-0.3-0.6-0.5c-0.1-0.1-0.2-0.2-0.3-0.3
		c-1.6-0.2-0.9-0.2-0.7-0.1c0.1,0.1,0.1,0.1,0.1,0.1c0.2,0.1,0.3,0.3,0.4,0.4c0.2,0.2,0.4,0.5,0.6,0.7c0.1,0.1,0.2,0.2,0.3,0.3
		c0.2,0.2-0.2,0.1,0.8,0.1c0.1,0-0.1-0.1-0.1-0.1c-0.4-0.4,0.3,0.2-0.4-0.3s-1.2-1.2-1.8-1.9c-0.1-0.1-0.1-0.1-0.1-0.1
		c-0.2-0.2,1.1-0.3-0.8-0.1c-0.1,0,0.1,0.1,0.2,0.1c0.2,0.1,0.3,0.2,0.5,0.3c0.4,0.3,0.9,0.7,1.3,1c0.2,0.1,0.3,0.2,0.4,0.3
		c0.1,0,0.1,0.1,0.1,0.1l0.8,0.1l0,0c-0.1,0-0.1-0.1-0.2-0.1c-0.2-0.1-0.3-0.2-0.5-0.3c-0.4-0.3-0.9-0.7-1.4-1
		c-0.2-0.1-0.3-0.2-0.4-0.3c-0.1-0.1-0.1-0.1-0.2-0.1c-1-0.3-1.1-0.3-0.7,0.1c0.6,0.6,1.2,1.2,1.9,1.9c0.1,0.1,0.2,0.2,0.3,0.3
		l0.1,0.1c0.3,0.1,0.5,0.1,0.9,0.2c0,0-0.1-0.1-0.1-0.1c-0.1-0.1-0.2-0.2-0.3-0.3c-0.2-0.2-0.5-0.5-0.7-0.7
		c-0.2-0.1-0.3-0.3-0.4-0.4C93.7,46,93.7,46,93.7,46l-0.1-0.1c-0.3-0.1-0.5-0.1-0.9-0.1c0.3,0.3,0.6,0.6,0.9,0.9
		c0.4,0.3,0.9,0.7,1.3,1.1c0.1,0,0.1,0.1,0.1,0.1c1.9,0.5,0.9,0.3,0.8,0.1c-0.1-0.1-0.1-0.1-0.1-0.2c-0.1-0.1-0.2-0.2-0.3-0.3
		c-0.2-0.1-0.3-0.3-0.4-0.5L94.3,46.7L94.3,46.7z"/>
	<path id="path15" class="st1" d="M94.1,46.9c1.5,0.3,0.9,0.3,0.7,0.2c-0.1,0-0.1-0.1-0.1-0.1c-0.1-0.1-0.1-0.1-0.1-0.1
		c-0.1-0.1-0.1-0.1-0.1-0.2c-0.1-0.1-0.1-0.1-0.1-0.2c0,0,0-0.1-0.1-0.1l0,0c0,0,0,0-0.1,0c0,0-0.1,0-0.1-0.1
		c-0.1,0-0.1-0.1-0.1-0.1c0,0-0.1,0-0.1-0.1c-0.1-0.1,0,0,0,0l0,0l0,0l0,0l0,0v0.1l0,0c-1.4-0.3-1-0.3-0.7-0.2
		c0.1,0,0.1,0.1,0.1,0.1c0,0.1,0.1,0.1,0.1,0.1c0.1,0.1,0.1,0.1,0.1,0.1c0,0.1,0.1,0.1,0.1,0.1l0.1,0.1c0,0,0,0,0.1,0.1
		c0,0.1,0,0,0,0s0,0,0,0.1l0,0l0,0l0,0l0,0l0.1,0.1c0,0,0,0,0,0.1l0,0l0,0l0,0l0,0l0,0l0,0l0,0l0,0l0,0l0,0l0,0l0,0l0,0l0,0l0,0l0,0
		l0,0l0,0c0,0,0.1,0,0.1,0.1l0.1,0.1c0.1,0.1,0.1,0.1,0.1,0.1c0.1,0.1,0.1,0.1,0.1,0.1l0.1,0.1c0,0,0,0,0,0.1l0.1,0.1l0,0
		c0,0,0,0,0.1,0c0,0,0.1,0,0.1,0.1c0.1,0,0.1,0.1,0.1,0.1c0.1,0.1,0.1,0.1,0.1,0.1c0.1,0.1,0.2,0.1,0.3,0.1c0.1,0.1,0.2,0.1,0.3,0.1
		c0.3,0.1,0.5,0.2,0.9,0.2l0,0c0,0,0,0,0-0.1c0-0.1,0-0.1,0-0.2c0-0.1,0-0.1-0.1-0.2c0,0,0,0,0-0.1c-0.1-0.1-0.1-0.2-0.2-0.2
		c-0.1-0.1-0.1-0.2-0.2-0.2c0-0.1-0.1-0.1-0.1-0.1c-0.1-0.1-0.1-0.1-0.1-0.1c0,0,0,0-0.1-0.1l0,0c-0.3-0.1-0.5-0.1-0.8-0.2v0.1
		c0.1,0.1,0.2,0.2,0.2,0.3c0.1,0.1,0.2,0.2,0.3,0.2l0.1,0.1l0,0v-0.1c0-0.3,0-0.1,0.7,0.1c0.1,0-0.1,0-0.1-0.1
		c-0.1-0.1-0.2-0.1-0.3-0.2c-0.1-0.1-0.1-0.1-0.2-0.1c-0.3-0.2-0.5-0.3-0.7-0.5c-0.1-0.1-0.2-0.1-0.2-0.2c-0.1-0.1-0.1-0.1-0.2-0.2
		c0,0,0,0,0-0.1l0,0c-0.3-0.1-0.5-0.1-0.8-0.1c0,0,0,0,0.1,0c0.1,0,0.1,0.1,0.1,0.1c0.1,0.1,0.1,0.1,0.2,0.2
		c0.1,0.1,0.2,0.2,0.3,0.3c0.1,0.1,0.2,0.2,0.3,0.2c0.1,0.1,0.1,0.1,0.2,0.1c0.1,0.1,0.3,0.2,0.4,0.2s0.2,0.2,0.3,0.2
		c0.1,0.1,0.1,0.1,0.2,0.2c0.1,0.1,0.1,0.1,0.2,0.2c0.1,0.1,0.1,0.1,0.2,0.1c0.1,0.1,0.2,0.1,0.3,0.2c0.1,0.1,0.1,0.1,0.2,0.1
		c0.3,0.1,0.5,0.2,0.8,0.2c0.1,0,0-0.1,0-0.1L97,47.9c-0.1,0-0.1-0.1-0.1-0.1c-0.2-0.1-0.1-0.1-0.3-0.2c-0.3-0.2-0.5-0.5-0.8-0.7
		c-0.1-0.1-0.2-0.2-0.3-0.3l0,0l0,0c-0.3-0.1-0.5-0.1-0.8-0.1c0,0,0,0,0.1,0.1c0,0,0,0,0.1,0.1c0.1,0.1,0.1,0.1,0.2,0.2
		c0.1,0.1,0.1,0.1,0.1,0.1c0.2,0.1,0.3,0.2,0.5,0.3c0.1,0.1,0.2,0.1,0.3,0.2c0.2,0.2,0.1,0.1,0.8,0.2c0,0,0-0.1-0.1-0.1
		c0-0.1-0.1-0.1-0.1-0.1c-0.2-0.2,0,0-0.2-0.2c-0.2-0.2-0.3-0.3-0.5-0.6c-0.1-0.1-0.1-0.1-0.2-0.2c-0.1-0.1-0.1-0.1-0.1-0.2l0,0l0,0
		v0.1c-1.8-0.5-1-0.3-0.8-0.2c0.1,0.1,0.1,0.1,0.2,0.1c0.1,0.1,0.2,0.2,0.3,0.3c0.1,0.1,0.1,0.1,0.2,0.2l0.1,0.1
		c0.3,0.1,0.5,0.1,0.8,0.1l0,0l0,0l0,0c-0.3-0.1-0.5-0.1-0.8-0.1c0.1,0.1,0.2,0.2,0.3,0.3c0.1,0.1,0.1,0.2,0.2,0.2
		c0.1,0.1,0.1,0.1,0.1,0.1c0.2,0.1,0.3,0.2,0.4,0.3c0.1,0.1,0.2,0.2,0.2,0.2l0.1,0.1c0,0,0,0,0.1,0l0.8,0.1l0,0c-0.1,0,0.1,0-0.1,0
		h-0.1l-0.1-0.1c-0.1-0.1-0.2-0.1-0.2-0.2c-0.1-0.1-0.3-0.2-0.4-0.4c-0.1-0.1-0.2-0.2-0.3-0.3c-0.1-0.1-0.2-0.2-0.2-0.3
		c-0.3-0.1-0.5-0.1-0.8-0.2l0,0l0,0l0,0c0.3,0.1,0.5,0.1,0.8,0.2l0,0l0,0l-0.1-0.1c-0.1-0.1-0.1-0.1-0.2-0.2
		c-0.1-0.1-0.2-0.2-0.3-0.3l-0.1-0.1c0,0,0,0-0.1-0.1l0,0l0,0c-0.3-0.1-0.5-0.1-0.8-0.2v0.1l0,0c0,0,0,0,0.1,0.1
		c0.1,0.1,0.1,0.1,0.2,0.2c0.2,0.2,0.4,0.5,0.6,0.8c0.1,0.1,0.1,0.1,0.2,0.2c0,0,0,0.1,0.1,0.1l0,0c0.3,0.1,0.5,0.1,0.8,0.2l0,0
		c-0.1-0.1-0.2-0.1-0.3-0.2c-0.2-0.1-0.3-0.2-0.4-0.3C96,47.1,96,47,95.9,46.9c0,0,0,0,0-0.1l0,0c-0.3-0.1-0.5-0.1-0.8-0.2l0,0
		c0,0,0,0.1,0.1,0.1c0.1,0.1,0.3,0.2,0.4,0.3c0.3,0.2,0.5,0.5,0.8,0.7c0.1,0.1,0.1,0.1,0.2,0.2l0.1,0.1c0,0,0,0.1,0.1,0.1V48
		c0.3,0.1,0.5,0.1,0.8,0.2c-0.1,0-0.2-0.1-0.2-0.1c-0.1-0.1-0.2-0.1-0.3-0.2c-0.1-0.1-0.1-0.1-0.2-0.1c-0.1-0.1-0.2-0.1-0.2-0.2
		l-0.1-0.1c-0.1-0.1-0.1-0.1-0.1-0.1c-0.1-0.1-0.1-0.1-0.2-0.1c-0.1-0.1-0.1-0.1-0.2-0.2c-0.1-0.1-0.2-0.2-0.3-0.2
		c-0.1-0.1-0.1-0.1-0.2-0.1c-0.1-0.1-0.2-0.2-0.3-0.2c-0.1-0.1-0.2-0.2-0.3-0.3c-0.1-0.1-0.1-0.1-0.2-0.2L94.7,46l0,0
		c-0.3-0.1-0.5-0.1-0.8-0.1l0,0c0,0,0.1,0,0.1,0.1c0.1,0.1,0.2,0.1,0.3,0.2c0.3,0.2,0.6,0.5,1,0.8c0.1,0.1,0.2,0.1,0.3,0.2
		c0.1,0,0.1,0.1,0.1,0.1l0.1,0.1c0.3,0.1,0.5,0.2,0.8,0.2c0,0,0.1,0,0.1-0.1v-0.1l0,0c-0.1-0.1-0.1-0.1-0.1-0.1
		c-0.1-0.1-0.2-0.2-0.3-0.2c-0.1-0.1-0.1-0.2-0.2-0.2c-0.2,0.3,0,0-0.8-0.2l0,0c0,0,0.1,0,0.1,0.1l0.1,0.1l0,0l0,0
		c0.1,0.1,0.1,0.1,0.1,0.1c0.1,0.1,0.1,0.2,0.2,0.2s0.1,0.2,0.1,0.2v0.1c0,0.1,0,0.1,0.1,0.1c0,0.1,0,0.1,0,0.1l0,0l0,0l0,0
		c0-0.3,0,0,0.8,0.2l0,0c-0.1,0-0.1,0-0.1-0.1c-0.1-0.1-0.2-0.1-0.3-0.1c-0.1,0-0.1-0.1-0.2-0.1c0,0,0,0-0.1,0
		c-0.1,0-0.1-0.1-0.1-0.1c-0.1-0.1-0.1-0.1-0.1-0.1c0,0-0.1,0-0.1-0.1l0,0l0,0c0,0,0,0-0.1-0.1l0,0l0,0c0,0,0,0-0.1,0l-0.1-0.1
		c-0.1,0-0.1-0.1-0.1-0.1c-0.1-0.1,0,0-0.1-0.1L95.1,47c0-0.1-0.1-0.1-0.1-0.1s0,0-0.1-0.1l0,0l0,0l0,0l0,0l0,0l0,0l0,0l0,0l0,0l0,0
		l0,0l0,0l0,0l0,0c0,0,0,0-0.1-0.1l-0.1-0.1l0,0c-0.1,0,0,0,0,0l0,0l0,0c0-0.1,0,0,0,0v-0.1l0,0l0,0l0,0l0,0c0,0,0-0.1-0.1-0.1l0,0
		l0,0c0-0.1-0.1-0.1-0.1-0.1c0,0,0-0.1-0.1-0.1c0-0.1-0.1-0.1-0.1-0.1c0,0,0-0.1-0.1-0.1l0,0l0,0c0-0.1-0.1-0.1-0.1-0.1
		c-0.3-0.2-0.4-0.2-0.9-0.2l0,0v0.1c0,0,0,0,0,0.1l0,0l0,0l0,0l0,0c0,0,0,0,0.1,0.1l0,0l0,0c0,0,0,0,0.1,0l0,0c0,0,0.1,0,0.1,0.1
		c0,0,0,0,0.1,0l0.1,0.1l0,0c0,0,0,0,0.1,0c0,0,0,0.1,0.1,0.1c0,0.1,0.1,0.1,0.1,0.1c0.1,0.1,0.1,0.2,0.1,0.2l0,0
		c0.1,0.1,0.1,0.1,0.1,0.1c0.1,0,0.1,0.1,0.1,0.1c0,0,0,0,0.1,0l0,0c0.3,0.1,0.5,0.2,0.8,0.2L94.1,46.9L94.1,46.9z"/>
	<path id="path16" class="st1" d="M95.7,47.3L95.7,47.3c0.1,0,0.1,0.1,0.1,0.1l0.1,0.1c0,0,0,0,0.1,0.1l0,0c0.1,0,0.1,0.1,0.1,0.1
		c0.1,0.1,0.2,0.1,0.3,0.2c0.1,0.1,0.2,0.1,0.2,0.2c0.1,0.1,0.1,0.1,0.2,0.1s0.1,0.1,0.1,0.1c0.1,0,0.1,0.1,0.1,0.1
		c0.1,0.1,0.1,0.1,0.1,0.1l0.1,0.1l0,0l0,0l0,0h0.1c0,0,0.1,0,0.1,0.1l0,0l0,0l0,0l0,0l0,0l0,0l0,0l0,0l0,0c0.1,0.3,0,0.1,0.8,0.2
		c0,0,0,0,0-0.1c0,0,0,0-0.1-0.1c-0.2-0.1,0.1,0.1-0.1-0.1c-0.2-0.1-0.3-0.3-0.4-0.4c-0.1-0.1-0.1-0.1-0.1-0.2c0,0,0,0-0.1-0.1
		l-0.1-0.1c0,0,0,0-0.1-0.1c0,0,0-0.1-0.1-0.1l0,0l0,0c-1.5-0.2-1-0.3-0.8-0.1c0.1,0.1,0.1,0.1,0.1,0.1c0.1,0.1,0.1,0.1,0.1,0.2
		c0.1,0.1,0.1,0.1,0.1,0.1l0.1,0.1l0.1,0.1c0,0,0.1,0,0.1,0.1l0,0c0,0,0,0,0.1,0c0.1,0,0,0,0,0s0,0,0.1,0l0,0l0,0l0,0l0,0l0,0l0,0
		l0,0l0,0l0,0l0,0l0,0l0,0l0,0l0,0l0,0l0,0l0,0l0,0c0,0,0.1,0,0.1,0.1c0,0,0.1,0,0.1,0.1l0,0l0,0l0,0l0,0l0,0l0,0l0,0l0,0l0,0l0,0
		c0,0,0,0.1,0.1,0.1l0,0l0,0l0,0l0,0l0,0l0,0l0,0l0,0l0,0l0,0l0,0l0,0l0,0l0,0l0,0l0,0l0,0l0,0l0,0l0,0l0,0l0,0l0,0l0,0l0,0l0,0l0,0
		l0,0l0,0l0,0l0.8,0.1l0,0l0,0l0,0l0,0l0,0l0,0l0,0l0,0l0,0l0,0l0,0l0,0l0,0l0,0l0,0l0,0l0,0l0,0l0,0l0,0l0,0l0,0l0,0l0,0l0,0l0,0
		l0,0l0,0l0,0l0,0l0,0l0,0l0,0l0,0l0,0l0,0l0,0l0,0l0,0l0,0l0,0l0,0l0,0l0,0l0,0l0,0l0,0c0,0-0.1,0-0.1-0.1l-0.1-0.1l0,0
		c0,0,0,0-0.1,0l0,0l0,0l0,0l0,0l0,0l0,0l0,0c0,0,0,0-0.1,0l0,0l0,0l0,0l0,0l0,0l0,0l0,0l0,0l0,0l0,0l0,0l0,0l0,0l0,0h-0.1
		c0,0,0,0-0.1,0l0,0l0,0l0,0h-0.1l0,0l-0.1-0.1C97.3,48,97.3,48,97.3,48c-0.1-0.1-0.1-0.1-0.2-0.2c0-0.1-0.1-0.1-0.1-0.1l0,0l0,0
		c-0.3-0.1-0.5-0.1-0.8-0.2l0,0l0,0l0.1,0.1c0.1,0.1,0.1,0.1,0.1,0.1c0.1,0.1,0.2,0.1,0.2,0.2c0.2,0.1,0.3,0.3,0.4,0.4
		c0,0.1,0.1,0.1,0.1,0.1l0,0l0,0c0.9,0.2,1.1,0.1,0.8,0.2l0,0l0,0l0,0l0,0l0,0l0,0l0,0l0,0l0,0l0,0l-0.1-0.1c0,0,0,0-0.1,0l0,0l0,0
		l0,0l0,0l0,0c0,0,0,0-0.1,0l0,0c-0.1-0.1-0.1-0.1-0.2-0.1c0,0-0.1-0.1-0.1-0.1c-0.1,0-0.1,0-0.1-0.1c0,0-0.1,0-0.1-0.1
		c-0.1,0-0.1-0.1-0.1-0.1C97.1,48,97,48,96.9,47.9c-0.1-0.1-0.2-0.1-0.2-0.2l-0.1-0.1l0,0l0,0l0,0l0,0c0,0,0-0.1-0.1-0.1
		c0,0,0,0,0-0.1c0,0,0-0.1-0.1-0.1l0,0L95.7,47.3L95.7,47.3z"/>
	<path id="path17" class="st1" d="M97.9,48.4l0.8,0.4l0.5,0.5l-1.4-0.3V48.4L97.9,48.4L97.9,48.4z"/>
	<path id="path18" class="st1" d="M97.5,48.3L97.5,48.3v0.1l0,0l0,0l0,0c0.3,0.1,0.5,0.1,0.8,0.2l0,0l0,0c0,0,0,0,0-0.1l0,0v-0.1
		l0,0l0,0C98.1,48.5,97.8,48.3,97.5,48.3c-0.3,0.1,1,0.3,0.8,0.2l0,0l0,0l0,0l0,0l0,0l0,0l0,0l0,0l0,0l0,0l0,0l0,0l0,0L97.5,48.3
		L97.5,48.3L97.5,48.3L97.5,48.3L97.5,48.3L97.5,48.3L97.5,48.3L97.5,48.3L97.5,48.3L97.5,48.3L97.5,48.3L97.5,48.3L97.5,48.3
		L97.5,48.3L97.5,48.3L97.5,48.3L97.5,48.3L97.5,48.3L97.5,48.3C97.7,48.4,99.5,49,97.5,48.3L97.5,48.3L97.5,48.3L97.5,48.3
		L97.5,48.3L97.5,48.3L97.5,48.3c0,0.1,0,0.1,0,0.1l0,0l0,0c0.3,0.1,0.5,0.1,0.8,0.2l0,0l0,0l0,0l0,0l0,0c0,0,0,0,0-0.1v-0.1
		L97.5,48.3L97.5,48.3z"/>
	<path id="path19" class="st1" d="M92.7,46.3l3.1,2.5l-1.9-3.1L92.7,46.3L92.7,46.3z"/>
	<path id="path20" class="st2" d="M52.8,43.2c-3.7-0.1-7.4-0.2-11-0.3c-4.1-0.1-8.2-0.2-12.3-0.1c-2.5,0.1-3,0.1-5.4,0.3
		c-3.3,0.3-6.9,0.6-9.5,1.4c-0.4,0.1-0.7,0.2-1.1,0.4c-1.5,0.6-1.8,1.4-2,2.2c-0.1,0.3-0.2,0.6-0.2,1c0.1,0.5,0.3,0.9,0.5,1.4
		c1,2.3,3.4,4.4,6.5,6.4c2.1,1.4,3.3,1.9,5.8,3.2l2.5,0.2l0,0c-2.5-1.3-3.7-1.8-5.8-3.2c-2.4-1.6-4.3-3.2-5.5-4.9
		c-0.3-0.5-0.5-1-0.8-1.5c-0.1-0.5-0.2-0.9-0.2-1.3c0-0.3,0.2-0.6,0.3-1c0.3-0.8,0.8-1.5,2.1-2.1c0.3-0.1,0.6-0.2,1-0.3
		c2.6-0.8,6-1.1,9.2-1.4c2.5-0.2,2.8-0.2,5.4-0.3c4.1-0.1,8.2,0,12.2,0.1c3.9,0.1,7.8,0.2,11.7,0.4L52.8,43.2L52.8,43.2z"/>
	<path id="path21" class="st1" d="M29.8,42.7l1.7,0.9l13.8,0.4l-0.1-0.3l-1.7-0.9L29.8,42.7L29.8,42.7z"/>
	<path id="path22" class="st1" d="M13.7,44.1c0,0,5.8,0,10.4,0.6c4.5,0.6,4.6-0.8,4.6-0.8l-2.2-1.3L13.7,44.1L13.7,44.1z"/>
	<path id="path23" class="st3" d="M53.7,43.4l0.8,0.5h0.9L55,43.5L53.7,43.4z"/>
	<path id="path24" class="st1" d="M55.2,43.6l0.5,0.3l0.6-0.1l-0.5-0.2H55.2L55.2,43.6z"/>
	<path id="path25" class="st3" d="M27.1,42.8l1.6,1l2.4-0.5l-1.4-0.6L27.1,42.8z"/>
	<path id="path26" class="st5" d="M103.7,91.4c-2.1,0.5-4.3,0.2-6.3,0c-2.9-0.3-4.6-0.8-7.6-1.3c-1.7-0.3-3.4-0.7-5-1.1
		c-1.8-0.4-3.7-0.9-5.6-1.3c-7.9-1.9-15.8-3.9-23.7-6c-3.1-0.8-6.2-1.7-9.2-2.5c-6.5-2-11.4-3.2-17.6-5.7c-2.6-1-5.2-2.3-7.8-3.5
		l0.9,0.8l0,0c2.6,1.2,5.1,2.4,7.7,3.4c6.1,2.4,11.1,3.7,17.4,5.6c13.4,3.8,5.3,1.5,18.4,5.1c8.8,2.4,17.5,4.9,26.5,7
		c3.6,0.8,4.6,1.1,8.1,1.6c2.3,0.3,4.6,0.8,7,0.3L103.7,91.4L103.7,91.4z"/>
	<path id="path11-5-6-5" class="st0" d="M57.2,121.1c0,0,13.3,10.7,15.8,8.3c2.5-2.4-0.5-12.5-5.8-14.3c-5.4-1.9-7.3-4.8-7.3-4.8
		l-3-3.5c0,0,7.5,7.8,11.2,7.1c3.7-0.6,9,16.3,4.5,17.5C68,132.7,57.2,121.1,57.2,121.1L57.2,121.1L57.2,121.1z"/>
	<path id="path11-5-6-0" class="st0" d="M59.1,136.5c0,0,15.6,4.3,18.5,3.4c2.9-0.9-0.6-5.1-6.8-5.8c-6.2-0.8-8.5-2-8.5-2l-3.6-1.4
		c0,0,8.9,3.2,13.2,2.9c4.4-0.3,10.5,6.7,5.2,7.1C71.8,141.2,59.1,136.5,59.1,136.5L59.1,136.5z"/>
	<path id="path11-5-6-6" class="st0" d="M66,133c0,0-14.3-6.6-17-5.2c-2.6,1.4,0.5,7.7,6.3,8.9c5.7,1.1,7.8,3,7.8,3l3.2,2.1
		c0,0-8.1-4.8-12.1-4.4c-4,0.4-9.7-10.1-4.8-10.8C54.4,125.8,66,133,66,133L66,133L66,133z"/>
	<path id="path11-5-6-56" class="st1" d="M42.7,106c0,0-11.4-7.5-13.5-5.8c-2.1,1.6,0.4,8.7,5,10c4.5,1.3,6.2,3.4,6.2,3.4l2.6,2.4
		c0,0-6.4-5.4-9.6-5c-3.2,0.5-7.7-11.4-3.8-12.3C33.4,97.9,42.7,106,42.7,106L42.7,106z"/>
	<path id="path27" class="st3" d="M18.7,37.9c0.1,0.3,0.2,0.6,0.3,0.9c2.1,5.4,7.5,9.6,11.7,13.2c4.2,3.2,5.7,4.6,10.4,7.4
		c7.2,4.3,15,7.6,22.9,10.4c2.5,0.9,5.1,1.6,7.7,2.3c13.8,4.2,27.9,5.3,42.3,5.9c1.6,0.1,3.1,0.1,4.6,0.1l-3.7-1.6l0,0
		c-1.5-0.1-3-0.1-4.5-0.1c-5.8-0.2-11.6-0.5-17.4-1c-5.9-0.6-8-1-13.9-2.1c-1.5-0.3-2.9-0.6-4.3-0.9c-2.6-0.8-5.2-1.4-7.8-2.3
		c-7.8-2.6-15.5-5.9-22.5-10.2c-4.4-2.7-6.2-4.2-10.2-7.4c-3.8-3.4-9.1-7.6-10.8-12.7c-0.1-0.2-0.1-0.5-0.2-0.8L18.7,37.9L18.7,37.9
		z"/>
	
		<ellipse id="path29" transform="matrix(0.3743 -0.9273 0.9273 0.3743 3.6458 100.6121)" class="st4" cx="76.4" cy="47.6" rx="5.2" ry="30.6"/>
	
		<ellipse id="path29-6" transform="matrix(0.3671 -0.9302 0.9302 0.3671 3.8506 99.2804)" class="st3" cx="74.9" cy="46.8" rx="4.1" ry="24.2"/>
	
		<ellipse id="path29-4" transform="matrix(0.3168 -0.9485 0.9485 0.3168 5.3342 102.6094)" class="st7" cx="73.9" cy="47.6" rx="2.5" ry="17"/>
	<path id="path30" class="st1" d="M40.7,113c1.3,3.6,3.2,7.1,5.2,10.4c2.1,3.4,4.6,6.5,7.6,9.3c1,1,2.1,2,3.2,2.8
		c3.2,2.5,4.3,2.8,7.9,4.8c6.3,2.5,5.5,2.4,13.8,4.2c2,0.5,4,0.6,6,1l-3.3-1.4l0,0c-2.1-0.3-4.1-0.7-6.1-1c-0.6-0.1-1.2-0.2-1.8-0.3
		c-1.6-0.5-3-1.2-4.6-1.8c-1.4-0.8-2.8-1.4-4.1-2.2c-4.8-2.9-8.9-6.9-12.2-11.5c-0.7-1-1.3-2-1.9-3c-1.7-3.2-3.5-6.4-4.3-10
		L40.7,113L40.7,113z"/>
	<path id="path30-1" class="st1" d="M50.9,98.4c1.3,2,3.2,3.8,5.1,5.6c2.1,1.9,4.6,3.5,7.5,5c1,0.5,2.1,1,3.1,1.5
		c3.2,1.3,4.2,1.5,7.8,2.5c6.2,1.3,5.5,1.3,13.7,2.3c1.9,0.2,3.9,0.3,5.9,0.5l-3.2-0.8l0,0c-2-0.2-4.1-0.3-6.1-0.6
		c-0.6-0.1-1.2-0.1-1.8-0.2c-1.5-0.3-3-0.6-4.5-0.9c-1.4-0.4-2.8-0.8-4.1-1.2c-4.7-1.5-8.8-3.6-12-6.1c-0.7-0.5-1.3-1.1-1.9-1.6
		c-1.7-1.7-3.5-3.4-4.2-5.3L50.9,98.4L50.9,98.4z"/>
	<path id="path27-8" class="st1" d="M33.3,93.5c0.1,0.3,0.1,0.8,0.2,1.1c1.2,6.5,3.9,10.7,6.1,14.4c2.1,3.2,2.9,4.6,5.2,7.1
		c3.6,3.8,7.4,6.3,11.3,7.8c1.2,0.5,2.5,0.8,3.8,1.2c6.8,2,13.5-0.1,20.4-2.7c0.8-0.3,1.5-0.6,2.2-1l-1.8-1.2l0,0
		c-0.7,0.3-1.5,0.6-2.2,1c-2.8,1.2-5.5,2.3-8.3,2.9c-2.8,0.6-3.8,0.7-6.7,0.7c-0.7,0-1.4-0.1-2.1-0.1c-1.2-0.3-2.5-0.6-3.8-1.1
		c-3.8-1.5-7.6-3.9-11.1-7.8c-2.2-2.4-3.1-4-5.1-7.1c-1.9-3.5-4.6-7.8-5.6-14c-0.1-0.3-0.1-0.6-0.1-1L33.3,93.5L33.3,93.5z"/>
	<path id="path27-8-5" class="st1" d="M55.4,113.8c0,0.3,0.1,0.5,0.1,0.8c0.6,4.8,2.1,7.9,3.2,10.6c1.1,2.4,1.5,3.4,2.8,5.3
		c1.9,2.8,3.9,4.7,6,5.8c0.6,0.3,1.4,0.6,2,0.8c3.6,1.5,7.2,0,10.8-2c0.4-0.2,0.8-0.5,1.2-0.7l-1-0.9l0,0c-0.4,0.2-0.8,0.5-1.1,0.8
		c-1.5,0.9-2.9,1.7-4.4,2.1c-1.5,0.5-2.1,0.5-3.6,0.5c-0.4,0-0.8-0.1-1.1-0.1c-0.6-0.3-1.4-0.5-2-0.8c-2.1-1.1-4-2.9-5.9-5.7
		c-1.2-1.8-1.6-3-2.7-5.2c-1-2.5-2.4-5.7-3-10.4c0-0.2-0.1-0.5-0.1-0.7L55.4,113.8L55.4,113.8z"/>
	<path id="path11-2-1-3" class="st3" d="M47.1,38.7c0,0-18.5-12.7-24.5-18.8c-6-6.1-5.7-14.4,9.1-5.4s20.3,11.6,20.3,11.6l40.9,19.1
		c0,0-52.8-25.4-62.7-32.9s-19.8-0.3-8,8.9S47.1,38.7,47.1,38.7z"/>
	<path id="path2" class="st7" d="M19.2,88.3c1.7,2.7,4.4,4.7,7.1,6.1c1.2,0.6,2.4,1.1,3.7,1.6c5.4,1.7,6.2,2,12.8,3.2
		c3.4,0.6,9.4,1.1,12.8,1.3c4.8,0.3,10,0.5,14.8,0.6c2.5,0.1,5,0.1,7.5,0.2l-1.7-0.7l0,0c-2.5-0.1-5-0.1-7.5-0.2
		c-2.5-0.1-5-0.2-7.4-0.3c-4.7-0.2-9.8-0.6-14.5-1.2c-2.1-0.2-4.2-0.6-6.3-0.9c-0.9-0.1-1.7-0.2-2.5-0.4c-1.5-0.3-2.9-0.9-4.3-1.3
		c-1.1-0.5-2.3-0.9-3.4-1.6c-2.2-1.2-4.5-3-5.8-5.1c-0.1-0.2-0.2-0.3-0.3-0.5L19.2,88.3L19.2,88.3z"/>
	<g id="text2">
		<text transform="matrix(0.9919 0.4948 -0.5585 0.8295 47.0073 51.8683)" class="st5 st8 st9">966</text>
	</g>
	<g id="text3">
		<text transform="matrix(0.97 0.225 -0.2239 0.9746 69.0235 85.1121)" class="st5 st8 st10">1000</text>
	</g>
	<g id="text4">
		<text transform="matrix(0.672 0.7413 -0.7377 0.6752 50.8072 125.3334)" class="st5 st8 st11">1410</text>
	</g>
	<g id="text5">
		<text transform="matrix(0.5088 0.8635 -0.8594 0.5113 115.8119 106.4372)" class="st5 st8 st12">1525</text>
	</g>
	<g id="text6">
		<text transform="matrix(0.9548 -0.2837 0.2823 0.9593 89.2901 136.3545)" class="st5 st8 st13">1683</text>
	</g>
	<g id="text7">
		<text transform="matrix(0.9703 0.2235 -0.2224 0.975 43.4493 30.688)" class="st5 st8 st14">1795</text>
	</g>
	<g id="text8">
		<text transform="matrix(0.9304 0.3567 -0.3549 0.9349 24.7915 92.8574)" class="st5 st8 st15">1918</text>
	</g>
	<g id="text9">
		<text transform="matrix(0.8563 -0.5121 0.5096 0.8604 109.3752 91.9386)" class="st5 st8 st16">1815</text>
	</g>
	<g id="text10">
		<text transform="matrix(0.9505 0.2978 -0.2964 0.9551 20.3305 66.2094)" class="st5 st8 st17">1791</text>
	</g>
	<g id="text11">
		<text transform="matrix(0.9677 0.2345 -0.2334 0.9724 102.5128 65.2005)" class="st5 st8 st14">1863</text>
	</g>
	<g id="text12">
		<text transform="matrix(0.8589 0.5077 -0.5053 0.863 28.2543 11.149)" class="st5 st8 st18">1939</text>
	</g>
	<g id="text13">
		<text transform="matrix(0.9054 0.4169 -0.4149 0.9099 59.5943 113.7695)" class="st5 st8 st19">476</text>
	</g>
	<path id="path28" class="st0" d="M88.5,152.5l35.8,0.1c0,0,9.4-2.5,1.1-5.2s3.4-3.1,3.4-3.1s8.9,0.8,10.7-0.5
		c1.8-1.2,1.8-1.2,1.8-1.2s8.3-5.3-7.8-3.7c-16.1,1.6-18.5,2.6-23.6,5.4c-5,2.8-3.9-3.5-13.7-2.2c-9.8,1.2-15.5,6.2-10.4,8.2
		C90.9,152.2,88.5,152.5,88.5,152.5L88.5,152.5L88.5,152.5z"/>
	<path id="path28-5" class="st1" d="M91.4,152.5h19.2c0,0,5-1.2,0.6-2.5c-4.4-1.3,1.8-1.5,1.8-1.5s4.8,0.3,5.7-0.2
		c1-0.6,1-0.6,1-0.6s4.4-2.6-4.2-1.8s-9.9,1.3-12.6,2.6c-2.7,1.3-2.1-1.7-7.4-1.1c-5.2,0.6-8.3,3-5.6,3.9
		C92.8,152.4,91.4,152.5,91.4,152.5L91.4,152.5L91.4,152.5z"/>
	<path id="path32" class="st1" d="M144.9,134.5c0,0-9.3-0.3-3.6-5.1s5.7-0.1,5.7-0.1s-1.3,1.9-0.1,2.8
		C148.1,133.2,144.9,134.5,144.9,134.5L144.9,134.5L144.9,134.5z"/>
	<path id="path32-2" class="st0" d="M144.5,133.7c0,0-5.6-0.2-2.2-3.4s3.4-0.1,3.4-0.1s-0.8,1.2-0.1,1.9
		C146.4,132.8,144.5,133.7,144.5,133.7L144.5,133.7L144.5,133.7z"/>
</g>
<g id="layer2">
	<g id="text14">
		<text transform="matrix(0.9952 0 0 1 105.5261 150.7099)" class="st5 st8 st20">W wirze historii...</text>
	</g>
	<path id="path32-4" class="st1" d="M111.9,121.6c0,0-2.7-8.9,3.9-5.2c6.6,3.7,1.9,5.4,1.9,5.4s-2.3-0.6-2.9,0.9
		C114.3,124.3,111.9,121.6,111.9,121.6L111.9,121.6L111.9,121.6z"/>
	<path id="path32-2-8" class="st0" d="M112.6,121c0,0-1.6-5.3,2.6-3.2s1.2,3.2,1.2,3.2s-1.5-0.3-1.9,0.6
		C114.1,122.5,112.6,121,112.6,121L112.6,121L112.6,121z"/>
	<path id="path32-9" class="st1" d="M86.8,114c0,0-7.6-0.3-2.9-4.2c4.7-3.9,4.7-0.1,4.7-0.1s-1.1,1.6-0.1,2.4
		C89.5,112.9,86.8,114,86.8,114L86.8,114L86.8,114z"/>
	<path id="path32-2-3" class="st0" d="M86.5,113.3c0,0-4.5-0.2-1.7-2.8c2.8-2.6,2.8-0.1,2.8-0.1s-0.6,1-0.1,1.6
		C88.1,112.6,86.5,113.3,86.5,113.3L86.5,113.3L86.5,113.3z"/>
	<path id="path32-95" class="st1" d="M149.4,146.5c0,0,5.6-7.5,6.2-0.1c0.6,7.4-3.2,4.7-3.2,4.7s-0.8-2.1-2.3-1.7
		C148.6,150,149.4,146.5,149.4,146.5L149.4,146.5z"/>
	<path id="path32-2-9" class="st0" d="M150.3,146.7c0,0,3.4-4.5,3.9,0.1c0.6,4.6-1.9,2.8-1.9,2.8s-0.5-1.3-1.5-1.1
		C149.9,148.8,150.3,146.7,150.3,146.7L150.3,146.7L150.3,146.7z"/>
	<path id="path32-40" class="st1" d="M92.3,122.1c0,0-5.8-0.2-2.2-3c3.6-2.8,3.6-0.1,3.6-0.1s-0.8,1.1-0.1,1.7
		C94.4,121.3,92.3,122.1,92.3,122.1L92.3,122.1L92.3,122.1z"/>
	<path id="path32-2-7" class="st0" d="M92.1,121.7c0,0-3.5-0.1-1.4-2c2.1-1.9,2.1,0,2.1,0s-0.5,0.8-0.1,1.1
		C93.3,121.1,92.1,121.7,92.1,121.7L92.1,121.7L92.1,121.7z"/>
</g>
</svg>
